# xmcd
#
# Track frame offsets: 
#        150
#        17497
#        35890
#        55264
#        75342
#        92845
#        108991
#        130145
#        148399
#        164611
#        184855
#        198999
#
# Disc length: 2936 seconds
#
# Revision: 0
# Processed by: cddbd v1.5.2PL0 Copyright (c) Steve Scherf et al.
# Submitted via: ExactAudioCopyFreeDBPlugin 1.0
#
DISCID=a50b760c
DTITLE=Frida Gold - Liebe ist meine Rebellion
DYEAR=2013
DGENRE=Pop
TTITLE0=6 Billionen
TTITLE1=Liebe ist meine Rebellion
TTITLE2=Die Dinge haben sich ver‰ndert
TTITLE3=Leuchten
TTITLE4=Rosegarden
TTITLE5=Himmelblau
TTITLE6=The Time Is Always Now
TTITLE7=Im Rausch der Gezeiten
TTITLE8=Im n‰chsten Leben
TTITLE9=Miss You
TTITLE10=Groﬂe Erwartungen
TTITLE11=Deine Liebe
EXTD=
EXTT0=
EXTT1=
EXTT2=
EXTT3=
EXTT4=
EXTT5=
EXTT6=
EXTT7=
EXTT8=
EXTT9=
EXTT10=
EXTT11=
PLAYORDER=
